<svg xmlns="http://www.w3.org/2000/svg" viewBox="0 0 503.56 463.68"><defs><style>.a{fill:none;stroke:#022b52;stroke-miterlimit:10;stroke-width:20px;}</style></defs><path class="a" d="M7174.22,7052.84c-24.83-78.4-89.14-124.55-144.05-116.43-64.43,9.53-92.28,90.28-96.34,102.05-29.4,85.25,16,164.79,31.07,191.09,61.19,107.15,171.77,140.95,202.26,149.17,36.12-12.1,99.78-39.39,155-100.51,33.79-37.42,68.54-93.49,83.07-169.71,13.49-70.74-28.53-160.48-105.62-160.22C7250.58,6948.44,7197.65,6987.27,7174.22,7052.84Z" transform="translate(-6914.14 -6925.49)"/><path class="a" d="M7000.68,7174.71c20.76,51.33,53.13,87.84,94,113.53" transform="translate(-6914.14 -6925.49)"/><path class="a" d="M6983.79,7085.26a203.44,203.44,0,0,0,10.86,73.59" transform="translate(-6914.14 -6925.49)"/><path class="a" d="M6992.89,7031.5a222.73,222.73,0,0,0-8.12,40.19" transform="translate(-6914.14 -6925.49)"/></svg>