<svg xmlns="http://www.w3.org/2000/svg" viewBox="0 0 373.12 367.81"><defs><style>.a{fill:none;stroke:#022b52;stroke-miterlimit:10;stroke-width:20px;}</style></defs><path class="a" d="M6716.46,7091.51c48.88-59.86,100.59-114.64,156.73-161.43,64.93,50.67,123,104.34,173.2,161.43h-30.56l1.56,183.54H6845.77c-.43-31.6-.83-61.18-1.18-87-23.86-5.94-46.44-7-67-.37-2.37,26.76-1.89,56.21.4,87.35h-37.62l-.39-183.54Z" transform="translate(-6695.38 -6917.24)"/><line class="a" x1="45.8" y1="174.3" x2="270.51" y2="174.3"/><line class="a" x1="277.43" y1="174.25" x2="320.16" y2="174.25"/><path class="a" d="M6985.47,7192.24" transform="translate(-6695.38 -6917.24)"/><ellipse class="a" cx="126.48" cy="316.02" rx="2.7" ry="1.71"/><path class="a" d="M6895.27,7173.77V7169c5.8-43.78,57.49-45.37,67,0v55.91h-67v-40.62" transform="translate(-6695.38 -6917.24)"/></svg>