<svg xmlns="http://www.w3.org/2000/svg" viewBox="0 0 684.63 774.41"><defs><style>.a{fill:none;stroke:#022b52;stroke-miterlimit:10;stroke-width:20px;}</style></defs><path class="a" d="M7347.38,7290.86c84.7-97.51,96.34-235.6,20.89-329-85.93-106.41-252.3-114.56-371.6-18.22s-146.34,260.7-60.41,367.11c73.63,91.16,206.3,110.21,317.82,53.2,71.32,82.42,134,169.54,180.79,263.54,45.28-22,83-51.76,112-90.47C7464.12,7469.49,7396.14,7388.83,7347.38,7290.86Z" transform="translate(-6876.04 -6866.38)"/><path class="a" d="M6943.41,7207.5c-16.11-76.66,16.62-165.76,90.35-225.3,99.27-80.17,235.27-76.4,303.77,8.42s43.56,218.57-55.71,298.74-235.27,76.39-303.77-8.43a170.54,170.54,0,0,1-26.52-45.94" transform="translate(-6876.04 -6866.38)"/><path class="a" d="M7348.14,7131.57q-.37,4.13-.9,8.34" transform="translate(-6876.04 -6866.38)"/><path class="a" d="M7348.67,7099.46c.34,5.55.46,11.24.33,17.07" transform="translate(-6876.04 -6866.38)"/><path class="a" d="M7330.22,7031.92a160.84,160.84,0,0,1,17.41,56.28" transform="translate(-6876.04 -6866.38)"/></svg>